<svg width="403" height="403" viewBox="0 0 403 403" fill="none" xmlns="http://www.w3.org/2000/svg">
<path d="M201.5 0C227.961 0 254.164 5.21194 278.611 15.3383C303.058 25.4646 325.271 40.307 343.982 59.018C362.693 77.729 377.535 99.9422 387.662 124.389C397.788 148.836 403 175.039 403 201.5C403 227.961 397.788 254.164 387.662 278.611C377.535 303.058 362.693 325.271 343.982 343.982C325.271 362.693 303.058 377.535 278.611 387.662C254.164 397.788 227.961 403 201.5 403L201.5 201.5L201.5 0Z" fill="url(#paint0_linear_93_106)"/>
<path d="M201.5 0C175.039 0 148.836 5.21194 124.389 15.3383C99.9422 25.4646 77.729 40.307 59.018 59.018C40.307 77.729 25.4646 99.9422 15.3383 124.389C5.21194 148.836 0 175.039 0 201.5C0 227.961 5.21194 254.164 15.3383 278.611C25.4646 303.058 40.307 325.271 59.018 343.982C77.729 362.693 99.9422 377.535 124.389 387.662C148.836 397.788 175.039 403 201.5 403L201.5 201.5L201.5 0Z" fill="url(#paint1_linear_93_106)"/>
<path d="M201.5 105.491C188.892 105.491 176.407 107.974 164.759 112.799C153.111 117.624 142.527 124.696 133.611 133.611C124.696 142.527 117.624 153.111 112.799 164.759C107.974 176.407 105.491 188.892 105.491 201.5C105.491 214.108 107.974 226.593 112.799 238.241C117.624 249.889 124.696 260.473 133.611 269.388C142.527 278.304 153.111 285.376 164.759 290.201C176.407 295.025 188.892 297.509 201.5 297.509L201.5 201.5V105.491Z" fill="url(#paint2_linear_93_106)"/>
<path d="M201.5 105.491C214.108 105.491 226.593 107.974 238.241 112.799C249.889 117.624 260.473 124.696 269.389 133.611C278.304 142.527 285.376 153.111 290.201 164.759C295.026 176.407 297.509 188.892 297.509 201.5C297.509 214.108 295.026 226.593 290.201 238.241C285.376 249.889 278.304 260.473 269.389 269.388C260.473 278.304 249.889 285.376 238.241 290.201C226.593 295.025 214.108 297.509 201.5 297.509L201.5 201.5V105.491Z" fill="url(#paint3_linear_93_106)"/>
<defs>
<linearGradient id="paint0_linear_93_106" x1="87.7118" y1="201.5" x2="403" y2="201.5" gradientUnits="userSpaceOnUse">
<stop stop-color="#1F2F98"/>
<stop offset="1" stop-color="#2C90C4"/>
</linearGradient>
<linearGradient id="paint1_linear_93_106" x1="201.5" y1="201.5" x2="0" y2="201.5" gradientUnits="userSpaceOnUse">
<stop stop-color="#2C90C4"/>
<stop offset="1" stop-color="#2EAAFA"/>
</linearGradient>
<linearGradient id="paint2_linear_93_106" x1="297.509" y1="201.5" x2="105.491" y2="201.5" gradientUnits="userSpaceOnUse">
<stop stop-color="#1F2F98"/>
<stop offset="1" stop-color="#2C90C4"/>
</linearGradient>
<linearGradient id="paint3_linear_93_106" x1="201.5" y1="201.5" x2="406.556" y2="201.5" gradientUnits="userSpaceOnUse">
<stop stop-color="#2C90C4"/>
<stop offset="1" stop-color="white"/>
</linearGradient>
</defs>
</svg>
