<svg width="55" height="55" viewBox="0 0 55 55" fill="none" xmlns="http://www.w3.org/2000/svg">
<path d="M27.5 55C42.6878 55 55 42.6878 55 27.5C55 12.3122 42.6878 0 27.5 0C12.3122 0 0 12.3122 0 27.5C0 42.6878 12.3122 55 27.5 55Z" fill="#001A33"/>
<path fill-rule="evenodd" clip-rule="evenodd" d="M31.2033 15.5871C31.2033 15.5871 27.1215 15.3205 26.075 19.2032C26.075 19.2032 25.6961 20.2218 25.7481 22.7308L22 22.7416V26.0239L25.7481 26.0131V39.4166H30.5257V26.0239L34.3149 26.0239V22.7308L30.5257 22.7308V20.9422C30.5257 19.7825 31.1699 18.6734 33.0542 18.6734H34.8333V15.5871H31.2033Z" fill="#FBFAF5"/>
</svg>
