<svg width="186" height="185" viewBox="0 0 186 185" fill="none" xmlns="http://www.w3.org/2000/svg">
<path d="M112.579 108.336L125.531 85.9475C126.364 84.5598 125.994 82.802 124.791 81.7843L111.098 71.0524C111.376 69.0171 111.561 66.8892 111.561 64.7613C111.561 62.6334 111.376 60.5056 111.098 58.3777L124.791 47.6458C125.994 46.6282 126.364 44.8703 125.531 43.4826L112.579 21.0937C111.746 19.7059 110.081 19.1508 108.6 19.7059L92.5027 26.1821C89.1721 23.5916 85.5639 21.4638 81.5858 19.7985L79.1803 2.68297C78.9028 1.20271 77.515 0 75.9423 0H50.0377C48.465 0 47.0772 1.20271 46.7997 2.77548L44.3942 19.891C40.5086 21.5563 36.8079 23.6841 33.4773 26.2746L17.3795 19.7985C15.8993 19.2434 14.234 19.7985 13.4013 21.1862L0.44906 43.5751C-0.383586 44.9629 -0.0135199 46.7207 1.18919 47.7383L14.8816 58.4702C14.604 60.5056 14.419 62.6334 14.419 64.7613C14.419 66.8892 14.604 69.0171 14.8816 71.1449L1.18919 81.8768C-0.0135199 82.8945 -0.383586 84.6523 0.44906 86.04L13.4013 108.429C14.234 109.817 15.8993 110.372 17.3795 109.817L33.4773 103.341C36.8079 105.931 40.4161 108.059 44.3942 109.724L46.7997 126.84C47.0772 128.32 48.465 129.523 50.0377 129.523H75.9423C77.515 129.523 78.9028 128.32 79.1803 126.747L81.5858 109.632C85.4714 107.966 89.1721 105.839 92.5027 103.248L108.6 109.724C110.081 110.279 111.746 109.724 112.579 108.336ZM62.99 83.2646C52.8132 83.2646 44.4868 74.9381 44.4868 64.7613C44.4868 54.5845 52.8132 46.2581 62.99 46.2581C73.1668 46.2581 81.4932 54.5845 81.4932 64.7613C81.4932 74.9381 73.1668 83.2646 62.99 83.2646Z" fill="#F5F5F5"/>
<path d="M184.281 154.224L175.399 147.378C175.584 146.083 175.77 144.695 175.77 143.308C175.77 141.92 175.677 140.532 175.399 139.237L184.188 132.391C184.929 131.743 185.206 130.633 184.651 129.708L176.325 115.368C175.862 114.443 174.752 114.165 173.734 114.443L163.465 118.606C161.337 116.94 159.024 115.553 156.434 114.535L154.861 103.618C154.768 102.508 153.843 101.768 152.918 101.768H136.358C135.34 101.768 134.415 102.508 134.322 103.526L132.749 114.443C130.252 115.553 127.846 116.848 125.718 118.513L115.449 114.35C114.524 113.98 113.414 114.35 112.859 115.275L104.532 129.615C104.069 130.54 104.162 131.651 104.995 132.298L113.784 139.144C113.599 140.44 113.506 141.827 113.506 143.215C113.506 144.603 113.599 145.991 113.784 147.286L104.995 154.132C104.255 154.78 103.977 155.89 104.532 156.815L112.859 171.155C113.321 172.08 114.431 172.358 115.449 172.08L125.718 167.917C127.846 169.582 130.159 170.97 132.749 171.988L134.322 182.905C134.507 183.922 135.34 184.662 136.358 184.662H152.918C153.936 184.662 154.861 183.922 154.953 182.905L156.526 171.988C159.024 170.877 161.43 169.582 163.465 167.917L173.827 172.08C174.752 172.45 175.862 172.08 176.417 171.155L184.744 156.815C185.299 155.982 185.021 154.872 184.281 154.224ZM144.592 155.705C137.745 155.705 132.102 150.154 132.102 143.215C132.102 136.276 137.653 130.725 144.592 130.725C151.53 130.725 157.081 136.276 157.081 143.215C157.081 150.154 151.438 155.705 144.592 155.705Z" fill="#F5F5F5"/>
</svg>
