<svg width="56" height="56" viewBox="0 0 56 56" fill="none" xmlns="http://www.w3.org/2000/svg">
<path d="M28 55.5C43.1878 55.5 55.5 43.1878 55.5 28C55.5 12.8122 43.1878 0.5 28 0.5C12.8122 0.5 0.5 12.8122 0.5 28C0.5 43.1878 12.8122 55.5 28 55.5Z" fill="#001A33"/>
<path d="M14.5098 19.25L15.9718 39.727C16.0328 40.5776 16.4137 41.3735 17.0379 41.9545C17.6621 42.5355 18.4832 42.8585 19.336 42.8585H36.6646C37.5174 42.8585 38.3386 42.5355 38.9628 41.9545C39.587 41.3735 39.9679 40.5776 40.0289 39.727L41.4909 19.25H14.5098Z" stroke="#FBFAF5" stroke-width="2" stroke-linecap="round" stroke-linejoin="round"/>
<path d="M22.0977 19.2502C22.0977 16.4627 24.6271 12.5049 27.9998 12.5049C31.3724 12.5049 33.9019 16.4627 33.9019 19.2502" stroke="#FBFAF5" stroke-width="2" stroke-linecap="round" stroke-linejoin="round"/>
<path d="M23.7842 36.1136C24.4806 36.8927 25.4705 37.7999 28 37.7999C30.5295 37.7999 32.2158 36.2873 32.2158 34.4273C32.2158 32.5672 30.5295 31.8978 28 31.0546C25.4705 30.2114 24.6273 28.5757 24.6273 27.682C24.6273 25.8203 26.3137 24.3093 28 24.3093C29.6863 24.3093 30.5295 24.3093 32.2158 25.9956" stroke="#FBFAF5" stroke-width="2" stroke-linecap="round" stroke-linejoin="round"/>
</svg>
