<svg width="593" height="348" viewBox="0 0 593 348" fill="none" xmlns="http://www.w3.org/2000/svg">
<path d="M297 347.5C119.402 346.69 0 269.157 0 173.563C0 158.52 5.31689 138.922 11 125C7 247 170.926 268 297 268V347.5Z" fill="url(#paint0_linear_45_90)"/>
<path d="M297 0C197.185 0.455322 113.15 28.0358 60.8727 65.511C35.4768 84.7902 16 107.5 8.50002 132C1.71352 160.851 21.5 186.5 43 206C38.5 200.5 25.6429 183 30.5 165C47.5 102 173.34 79.5 297 79.5V0Z" fill="url(#paint1_linear_45_90)"/>
<path fill-rule="evenodd" clip-rule="evenodd" d="M297 347.5C306.475 347.422 316.868 347.596 326 347.088C486.828 338.15 593 264.064 593 173.993C593 83.9215 486.828 9.83486 326 0.897017C316.199 0.352347 307.195 0.0496597 297 0L297 347.5C297.696 347.494 296.307 347.513 297 347.5ZM451.438 249.104C468.351 254.906 483.98 261.645 498.196 269.198C535.631 245.888 555.896 218.014 561.427 190H466.349C464.626 211.003 459.521 230.927 451.438 249.104ZM466.428 159C464.826 138.125 459.886 118.302 452.005 100.184C469.212 94.249 485.084 87.343 499.484 79.5959C536.544 103.023 556.443 130.968 561.621 159H466.428ZM436.328 159H326V123.586C361.146 121.632 393.683 116.568 423.071 108.905C430.168 124.172 434.704 141.055 436.328 159ZM326 190H436.234C434.484 208.091 429.768 225.086 422.449 240.416C393.224 232.844 360.898 227.836 326 225.897V190ZM435.465 277.398C444.968 280.249 453.984 283.299 462.328 286.493C448.236 291.887 432.223 296.87 415.189 301.18C422.692 293.922 429.471 285.961 435.465 277.398ZM404.08 269.125C378.881 263.332 351.95 259.065 326 257.118V314.921C358.214 308.436 384.934 292.076 404.08 269.125ZM464.238 62.2515C455.613 65.6182 446.234 68.8314 436.316 71.8285C430.125 62.8137 423.073 54.4521 415.23 46.8595C433.016 51.3578 449.699 56.5876 464.238 62.2515ZM405.106 80.1208C385.894 56.5162 358.794 39.6809 326 33.0792V92.3645C352.302 90.3909 379.613 86.0344 405.106 80.1208Z" fill="#1F2F98"/>
<defs>
<linearGradient id="paint0_linear_45_90" x1="12" y1="219.5" x2="297" y2="348" gradientUnits="userSpaceOnUse">
<stop stop-color="#1F2F98"/>
<stop offset="1" stop-color="#2EAAFA"/>
</linearGradient>
<linearGradient id="paint1_linear_45_90" x1="300.5" y1="6.3598e-05" x2="14.5001" y2="190.5" gradientUnits="userSpaceOnUse">
<stop stop-color="#1F2F98"/>
<stop offset="1" stop-color="#2EAAFA"/>
</linearGradient>
</defs>
</svg>
